<?xml version="1.0" standalone="no"?>
<!DOCTYPE svg PUBLIC "-//W3C//DTD SVG 20010904//EN"
 "http://www.w3.org/TR/2001/REC-SVG-20010904/DTD/svg10.dtd">
<svg version="1.0" xmlns="http://www.w3.org/2000/svg"
 width="700.000000pt" height="700.000000pt" viewBox="0 0 700.000000 700.000000"
 preserveAspectRatio="xMidYMid meet">
<metadata>
Created by potrace 1.14, written by Peter Selinger 2001-2017
</metadata>
<g transform="translate(0.000000,700.000000) scale(0.100000,-0.100000)"
fill="#000000" stroke="none">
<path d="M1495 6979 c-541 -44 -942 -262 -1206 -657 -157 -235 -225 -437 -261
-772 -10 -99 -13 -525 -13 -2045 0 -2029 0 -2041 46 -2270 65 -325 232 -618
469 -823 266 -229 525 -338 915 -384 162 -19 3924 -19 4105 0 414 44 710 169
958 407 229 218 380 487 441 787 47 226 46 191 46 2273 0 2078 0 2059 -45
2286 -65 318 -235 615 -468 815 -204 176 -447 298 -695 348 -225 46 -218 46
-2262 45 -1061 -1 -1975 -5 -2030 -10z m2605 -1075 c639 -423 1159 -1091 1385
-1779 157 -478 182 -927 76 -1368 l-19 -79 64 -84 c163 -216 280 -467 339
-729 47 -205 46 -476 -1 -567 -8 -16 -20 -28 -28 -28 -7 0 -37 39 -66 86 -163
267 -423 397 -728 363 -165 -18 -336 -77 -492 -169 -46 -27 -138 -72 -205 -99
-896 -368 -2066 -116 -2976 642 -200 167 -405 379 -566 588 -43 56 -153 215
-178 258 -4 7 28 -11 71 -42 110 -76 310 -195 429 -254 470 -236 901 -345
1360 -346 268 0 490 33 722 109 100 33 345 144 386 175 16 13 6 24 -120 125
-483 390 -992 898 -1502 1499 -198 235 -634 779 -732 916 -123 172 -127 187
-28 98 500 -450 1593 -1274 1994 -1505 59 -33 55 -26 -45 81 -183 197 -499
570 -732 866 -205 260 -599 797 -653 889 -5 8 54 -46 131 -120 590 -570 1171
-1062 1774 -1502 307 -224 663 -459 676 -446 16 17 85 269 111 408 28 150 25
570 -5 744 -79 454 -256 880 -530 1275 -36 52 -59 90 -51 86 8 -4 70 -45 139
-91z"/>
</g>
</svg>
