<?xml version="1.0" standalone="no"?>
<!DOCTYPE svg PUBLIC "-//W3C//DTD SVG 20010904//EN"
 "http://www.w3.org/TR/2001/REC-SVG-20010904/DTD/svg10.dtd">
<svg version="1.0" xmlns="http://www.w3.org/2000/svg"
 width="1024.000000pt" height="1024.000000pt" viewBox="0 0 1024.000000 1024.000000"
 preserveAspectRatio="xMidYMid meet">
<metadata>
Created by potrace 1.14, written by Peter Selinger 2001-2017
</metadata>
<g transform="translate(0.000000,1024.000000) scale(0.100000,-0.100000)"
fill="#000000" stroke="none">
<path d="M2235 10224 c-403 -33 -670 -93 -937 -210 -304 -134 -618 -383 -815
-645 -289 -385 -415 -736 -465 -1299 -10 -115 -13 -731 -13 -2955 0 -2613 1
-2822 18 -2985 37 -370 100 -613 222 -865 119 -244 226 -396 405 -576 344
-345 743 -553 1215 -633 314 -53 125 -50 3090 -54 2787 -3 2971 -2 3274 34
393 45 726 166 1037 375 244 164 461 398 636 685 182 301 265 573 320 1044 10
93 13 661 13 2955 0 2642 -1 2852 -18 3015 -37 370 -100 613 -222 865 -119
244 -226 396 -405 576 -344 345 -743 553 -1215 633 -315 54 -115 50 -3165 52
-2260 1 -2847 -1 -2975 -12z m3717 -1503 c334 -219 569 -411 859 -700 464
-465 805 -952 1057 -1511 238 -529 356 -1021 369 -1550 8 -333 -12 -545 -83
-853 l-33 -148 66 -87 c296 -388 489 -831 560 -1287 26 -167 23 -453 -6 -560
-11 -44 -30 -91 -40 -105 -32 -44 -51 -33 -112 68 -223 367 -505 547 -894 569
-263 15 -628 -82 -890 -237 -961 -568 -2354 -541 -3611 69 -782 380 -1465 944
-1976 1631 -84 113 -228 324 -228 335 0 2 80 -49 178 -114 224 -151 397 -250
637 -366 502 -244 941 -379 1465 -451 157 -21 608 -30 781 -15 438 39 878 167
1221 354 138 76 138 60 2 167 -786 620 -1596 1431 -2455 2460 -238 285 -736
905 -854 1065 -93 125 -228 325 -223 330 2 2 57 -44 123 -102 865 -760 2240
-1790 2980 -2233 l40 -24 -55 60 c-30 34 -102 112 -160 175 -511 557 -1123
1315 -1656 2049 -160 220 -323 455 -331 477 -3 10 95 -81 218 -202 960 -941
2124 -1894 3171 -2596 182 -122 405 -255 413 -247 21 21 109 315 141 469 47
231 58 356 58 644 0 297 -12 430 -65 701 -118 607 -404 1257 -784 1784 -35 50
-61 90 -57 90 5 0 83 -49 174 -109z"/>
</g>
</svg>
